<svg width="15" height="14" viewBox="0 0 15 14" fill="none" xmlns="http://www.w3.org/2000/svg">
<path d="M5.96887 1.06165C5.65637 1.37415 5.68762 1.8429 5.96887 2.1554L9.75012 5.74915L0.750123 5.74915C0.343873 5.74915 0.000122905 6.06165 0.000122905 6.49915V7.49915C0.000122905 7.9054 0.343873 8.24915 0.750123 8.24915L9.75012 8.24915L5.96887 11.8116C5.68762 12.1241 5.65637 12.5929 5.96887 12.9054L6.65637 13.5929C6.93762 13.8741 7.43762 13.8741 7.71887 13.5929L13.7814 7.49915C14.0939 7.2179 14.0939 6.74915 13.7814 6.4679L7.71887 0.374146C7.43762 0.0928965 6.96887 0.0928965 6.65637 0.374146L5.96887 1.06165Z" fill="#959EAD"/>
</svg>
